<svg xmlns="http://www.w3.org/2000/svg" width="768" height="810" viewBox="0 0 768 810"><rect width="768" height="810" fill="#F6F4EF"></rect><rect x="0" y="0" width="768" height="52" fill="#FFFFFF"></rect><line x1="0" y1="52" x2="768" y2="52" stroke="#D8D3C9" stroke-width="1"></line><rect x="24" y="14" width="24" height="24" rx="6" fill="#2B2722"></rect><text x="36" y="31" font-family="Pretendard, Noto Sans KR, sans-serif" font-size="13" font-weight="700" fill="#E2A04F" text-anchor="middle">手</text><text x="58" y="31" font-family="Pretendard, Noto Sans KR, sans-serif" font-size="14" font-weight="800" fill="#3A3631" text-anchor="start">더핸드 관리</text><text x="744" y="31" font-family="Pretendard, Noto Sans KR, sans-serif" font-size="11" font-weight="400" fill="#8B8478" text-anchor="end">PIN 재설정 · 로그아웃</text><text x="66.5" y="84" font-family="Pretendard, Noto Sans KR, sans-serif" font-size="13" font-weight="500" fill="#8B8478" text-anchor="middle">메뉴 관리</text><text x="164" y="84" font-family="Pretendard, Noto Sans KR, sans-serif" font-size="13" font-weight="500" fill="#8B8478" text-anchor="middle">페이지·순서</text><text x="248.5" y="84" font-family="Pretendard, Noto Sans KR, sans-serif" font-size="13" font-weight="800" fill="#3A3631" text-anchor="middle">원산지</text><rect x="227" y="92" width="43" height="3" rx="1.5" fill="#C8902F"></rect><text x="333" y="84" font-family="Pretendard, Noto Sans KR, sans-serif" font-size="13" font-weight="500" fill="#8B8478" text-anchor="middle">공지·이벤트</text><text x="430.5" y="84" font-family="Pretendard, Noto Sans KR, sans-serif" font-size="13" font-weight="500" fill="#8B8478" text-anchor="middle">영업 정보</text><text x="24" y="126" font-family="Pretendard, Noto Sans KR, sans-serif" font-size="17" font-weight="800" fill="#3A3631" text-anchor="start">원산지 표기</text><text x="24" y="146" font-family="Pretendard, Noto Sans KR, sans-serif" font-size="11" font-weight="400" fill="#8B8478" text-anchor="start">손님 메뉴판 맨 마지막 페이지에 표시됩니다 · 변경 즉시 반영</text><rect x="664" y="114" width="80" height="30" rx="15" fill="#C8902F"></rect><text x="704" y="133" font-family="Pretendard, Noto Sans KR, sans-serif" font-size="12" font-weight="700" fill="#fff" text-anchor="middle">저장</text><rect x="568" y="114" width="88" height="30" rx="15" fill="#fff" stroke="#D8D3C9" stroke-width="1"></rect><text x="612" y="133" font-family="Pretendard, Noto Sans KR, sans-serif" font-size="12" font-weight="700" fill="#8B8478" text-anchor="middle">미리보기</text><rect x="24" y="164" width="720" height="506" rx="10" fill="#fff" stroke="#D8D3C9" stroke-width="1"></rect><text x="40" y="186" font-family="Pretendard, Noto Sans KR, sans-serif" font-size="10.5" font-weight="700" fill="#8B8478" text-anchor="start">재료</text><text x="260" y="186" font-family="Pretendard, Noto Sans KR, sans-serif" font-size="10.5" font-weight="700" fill="#8B8478" text-anchor="start">원산지</text><line x1="40" y1="194" x2="704" y2="194" stroke="#D8D3C9" stroke-width="1"></line><text x="46" y="225" font-family="Pretendard, Noto Sans KR, sans-serif" font-size="14" font-weight="400" fill="#B5AFA3" text-anchor="start">≡</text><rect x="70" y="205" width="170" height="28" rx="6" fill="#fff" stroke="#D8D3C9" stroke-width="1"></rect><text x="81" y="224" font-family="Pretendard, Noto Sans KR, sans-serif" font-size="12.5" font-weight="600" fill="#3A3631" text-anchor="start">쌀</text><rect x="260" y="205" width="330" height="28" rx="6" fill="#fff" stroke="#D8D3C9" stroke-width="1"></rect><text x="271" y="224" font-family="Pretendard, Noto Sans KR, sans-serif" font-size="12.5" font-weight="400" fill="#3A3631" text-anchor="start">국내산</text><rect x="604" y="207" width="58" height="24" rx="12" fill="#EDEAE2"></rect><text x="633" y="223" font-family="Pretendard, Noto Sans KR, sans-serif" font-size="10.5" font-weight="400" fill="#8B8478" text-anchor="middle">국내산</text><circle cx="690" cy="219" r="11" fill="#EDEAE2"></circle><text x="690" y="223" font-family="Pretendard, Noto Sans KR, sans-serif" font-size="10" font-weight="800" fill="#B0402A" text-anchor="middle">✕</text><line x1="40" y1="244" x2="704" y2="244" stroke="#D8D3C9" stroke-width="1"></line><text x="46" y="275" font-family="Pretendard, Noto Sans KR, sans-serif" font-size="14" font-weight="400" fill="#B5AFA3" text-anchor="start">≡</text><rect x="70" y="255" width="170" height="28" rx="6" fill="#fff" stroke="#D8D3C9" stroke-width="1"></rect><text x="81" y="274" font-family="Pretendard, Noto Sans KR, sans-serif" font-size="12.5" font-weight="600" fill="#3A3631" text-anchor="start">광어</text><rect x="260" y="255" width="330" height="28" rx="6" fill="#fff" stroke="#D8D3C9" stroke-width="1"></rect><text x="271" y="274" font-family="Pretendard, Noto Sans KR, sans-serif" font-size="12.5" font-weight="400" fill="#3A3631" text-anchor="start">국내산(양식)</text><rect x="604" y="257" width="58" height="24" rx="12" fill="#EDEAE2"></rect><text x="633" y="273" font-family="Pretendard, Noto Sans KR, sans-serif" font-size="10.5" font-weight="400" fill="#8B8478" text-anchor="middle">국내산</text><circle cx="690" cy="269" r="11" fill="#EDEAE2"></circle><text x="690" y="273" font-family="Pretendard, Noto Sans KR, sans-serif" font-size="10" font-weight="800" fill="#B0402A" text-anchor="middle">✕</text><line x1="40" y1="294" x2="704" y2="294" stroke="#D8D3C9" stroke-width="1"></line><text x="46" y="325" font-family="Pretendard, Noto Sans KR, sans-serif" font-size="14" font-weight="400" fill="#B5AFA3" text-anchor="start">≡</text><rect x="70" y="305" width="170" height="28" rx="6" fill="#fff" stroke="#D8D3C9" stroke-width="1"></rect><text x="81" y="324" font-family="Pretendard, Noto Sans KR, sans-serif" font-size="12.5" font-weight="600" fill="#3A3631" text-anchor="start">한치</text><rect x="260" y="305" width="330" height="28" rx="6" fill="#fff" stroke="#D8D3C9" stroke-width="1"></rect><text x="271" y="324" font-family="Pretendard, Noto Sans KR, sans-serif" font-size="12.5" font-weight="400" fill="#3A3631" text-anchor="start">국내산</text><rect x="604" y="307" width="58" height="24" rx="12" fill="#EDEAE2"></rect><text x="633" y="323" font-family="Pretendard, Noto Sans KR, sans-serif" font-size="10.5" font-weight="400" fill="#8B8478" text-anchor="middle">국내산</text><circle cx="690" cy="319" r="11" fill="#EDEAE2"></circle><text x="690" y="323" font-family="Pretendard, Noto Sans KR, sans-serif" font-size="10" font-weight="800" fill="#B0402A" text-anchor="middle">✕</text><line x1="40" y1="344" x2="704" y2="344" stroke="#D8D3C9" stroke-width="1"></line><text x="46" y="375" font-family="Pretendard, Noto Sans KR, sans-serif" font-size="14" font-weight="400" fill="#B5AFA3" text-anchor="start">≡</text><rect x="70" y="355" width="170" height="28" rx="6" fill="#fff" stroke="#D8D3C9" stroke-width="1"></rect><text x="81" y="374" font-family="Pretendard, Noto Sans KR, sans-serif" font-size="12.5" font-weight="600" fill="#3A3631" text-anchor="start">소고기(와규)</text><rect x="260" y="355" width="330" height="28" rx="6" fill="#fff" stroke="#D8D3C9" stroke-width="1"></rect><text x="271" y="374" font-family="Pretendard, Noto Sans KR, sans-serif" font-size="12.5" font-weight="400" fill="#3A3631" text-anchor="start">호주산</text><rect x="604" y="357" width="58" height="24" rx="12" fill="#EDEAE2"></rect><text x="633" y="373" font-family="Pretendard, Noto Sans KR, sans-serif" font-size="10.5" font-weight="400" fill="#8B8478" text-anchor="middle">국내산</text><circle cx="690" cy="369" r="11" fill="#EDEAE2"></circle><text x="690" y="373" font-family="Pretendard, Noto Sans KR, sans-serif" font-size="10" font-weight="800" fill="#B0402A" text-anchor="middle">✕</text><line x1="40" y1="394" x2="704" y2="394" stroke="#D8D3C9" stroke-width="1"></line><text x="46" y="425" font-family="Pretendard, Noto Sans KR, sans-serif" font-size="14" font-weight="400" fill="#B5AFA3" text-anchor="start">≡</text><rect x="70" y="405" width="170" height="28" rx="6" fill="#fff" stroke="#D8D3C9" stroke-width="1"></rect><text x="81" y="424" font-family="Pretendard, Noto Sans KR, sans-serif" font-size="12.5" font-weight="600" fill="#3A3631" text-anchor="start">새우</text><rect x="260" y="405" width="330" height="28" rx="6" fill="#fff" stroke="#D8D3C9" stroke-width="1"></rect><text x="271" y="424" font-family="Pretendard, Noto Sans KR, sans-serif" font-size="12.5" font-weight="400" fill="#3A3631" text-anchor="start">베트남산</text><rect x="604" y="407" width="58" height="24" rx="12" fill="#EDEAE2"></rect><text x="633" y="423" font-family="Pretendard, Noto Sans KR, sans-serif" font-size="10.5" font-weight="400" fill="#8B8478" text-anchor="middle">국내산</text><circle cx="690" cy="419" r="11" fill="#EDEAE2"></circle><text x="690" y="423" font-family="Pretendard, Noto Sans KR, sans-serif" font-size="10" font-weight="800" fill="#B0402A" text-anchor="middle">✕</text><line x1="40" y1="444" x2="704" y2="444" stroke="#D8D3C9" stroke-width="1"></line><text x="46" y="475" font-family="Pretendard, Noto Sans KR, sans-serif" font-size="14" font-weight="400" fill="#B5AFA3" text-anchor="start">≡</text><rect x="70" y="455" width="170" height="28" rx="6" fill="#fff" stroke="#D8D3C9" stroke-width="1"></rect><text x="81" y="474" font-family="Pretendard, Noto Sans KR, sans-serif" font-size="12.5" font-weight="600" fill="#3A3631" text-anchor="start">메밀</text><rect x="260" y="455" width="330" height="28" rx="6" fill="#fff" stroke="#D8D3C9" stroke-width="1"></rect><text x="271" y="474" font-family="Pretendard, Noto Sans KR, sans-serif" font-size="12.5" font-weight="400" fill="#3A3631" text-anchor="start">중국산</text><rect x="604" y="457" width="58" height="24" rx="12" fill="#EDEAE2"></rect><text x="633" y="473" font-family="Pretendard, Noto Sans KR, sans-serif" font-size="10.5" font-weight="400" fill="#8B8478" text-anchor="middle">국내산</text><circle cx="690" cy="469" r="11" fill="#EDEAE2"></circle><text x="690" y="473" font-family="Pretendard, Noto Sans KR, sans-serif" font-size="10" font-weight="800" fill="#B0402A" text-anchor="middle">✕</text><line x1="40" y1="494" x2="704" y2="494" stroke="#D8D3C9" stroke-width="1"></line><text x="46" y="525" font-family="Pretendard, Noto Sans KR, sans-serif" font-size="14" font-weight="400" fill="#B5AFA3" text-anchor="start">≡</text><rect x="70" y="505" width="170" height="28" rx="6" fill="#fff" stroke="#D8D3C9" stroke-width="1"></rect><text x="81" y="524" font-family="Pretendard, Noto Sans KR, sans-serif" font-size="12.5" font-weight="600" fill="#3A3631" text-anchor="start">배추김치</text><rect x="260" y="505" width="330" height="28" rx="6" fill="#fff" stroke="#D8D3C9" stroke-width="1"></rect><text x="271" y="524" font-family="Pretendard, Noto Sans KR, sans-serif" font-size="12.5" font-weight="400" fill="#3A3631" text-anchor="start">배추 국내산 · 고춧가루 중국산</text><rect x="604" y="507" width="58" height="24" rx="12" fill="#EDEAE2"></rect><text x="633" y="523" font-family="Pretendard, Noto Sans KR, sans-serif" font-size="10.5" font-weight="400" fill="#8B8478" text-anchor="middle">국내산</text><circle cx="690" cy="519" r="11" fill="#EDEAE2"></circle><text x="690" y="523" font-family="Pretendard, Noto Sans KR, sans-serif" font-size="10" font-weight="800" fill="#B0402A" text-anchor="middle">✕</text><line x1="40" y1="544" x2="704" y2="544" stroke="#D8D3C9" stroke-width="1"></line><text x="46" y="575" font-family="Pretendard, Noto Sans KR, sans-serif" font-size="14" font-weight="400" fill="#B5AFA3" text-anchor="start">≡</text><rect x="70" y="555" width="170" height="28" rx="6" fill="#fff" stroke="#D8D3C9" stroke-width="1"></rect><text x="81" y="574" font-family="Pretendard, Noto Sans KR, sans-serif" font-size="12.5" font-weight="600" fill="#3A3631" text-anchor="start">가지</text><rect x="260" y="555" width="330" height="28" rx="6" fill="#fff" stroke="#D8D3C9" stroke-width="1"></rect><text x="271" y="574" font-family="Pretendard, Noto Sans KR, sans-serif" font-size="12.5" font-weight="400" fill="#3A3631" text-anchor="start">국내산</text><rect x="604" y="557" width="58" height="24" rx="12" fill="#EDEAE2"></rect><text x="633" y="573" font-family="Pretendard, Noto Sans KR, sans-serif" font-size="10.5" font-weight="400" fill="#8B8478" text-anchor="middle">국내산</text><circle cx="690" cy="569" r="11" fill="#EDEAE2"></circle><text x="690" y="573" font-family="Pretendard, Noto Sans KR, sans-serif" font-size="10" font-weight="800" fill="#B0402A" text-anchor="middle">✕</text><line x1="40" y1="594" x2="704" y2="594" stroke="#D8D3C9" stroke-width="1"></line><rect x="40" y="608" width="200" height="32" rx="16" fill="#fff" stroke="#D8D3C9" stroke-width="1"></rect><text x="140" y="628" font-family="Pretendard, Noto Sans KR, sans-serif" font-size="12" font-weight="700" fill="#8B8478" text-anchor="middle">+ 행 추가</text><text x="260" y="628" font-family="Pretendard, Noto Sans KR, sans-serif" font-size="10.5" font-weight="400" fill="#8B8478" text-anchor="start">행을 끌어 표시 순서 변경</text><rect x="24" y="684" width="720" height="76" rx="10" fill="#fff" stroke="#D8D3C9" stroke-width="1"></rect><text x="40" y="708" font-family="Pretendard, Noto Sans KR, sans-serif" font-size="12.5" font-weight="800" fill="#3A3631" text-anchor="start">하단 각주 문구</text><rect x="40" y="720" width="640" height="28" rx="6" fill="#fff" stroke="#D8D3C9" stroke-width="1"></rect><text x="51" y="739" font-family="Pretendard, Noto Sans KR, sans-serif" font-size="11.5" font-weight="400" fill="#5C564E" text-anchor="start">∗ 수급 상황에 따라 원산지가 변경될 수 있으며, 변경 시 즉시 수정 표기합니다 ∗</text><text x="24" y="784" font-family="Pretendard, Noto Sans KR, sans-serif" font-size="10.5" font-weight="400" fill="#8B8478" text-anchor="start">법정 의무 표기 항목(쌀·김치류·축산물 등)은 삭제 시 경고가 표시됩니다</text></svg>