<svg xmlns="http://www.w3.org/2000/svg" width="768" height="828" viewBox="0 0 768 828"><rect width="768" height="828" fill="#F6F4EF"></rect><rect x="0" y="0" width="768" height="52" fill="#FFFFFF"></rect><line x1="0" y1="52" x2="768" y2="52" stroke="#D8D3C9" stroke-width="1"></line><rect x="24" y="14" width="24" height="24" rx="6" fill="#2B2722"></rect><text x="36" y="31" font-family="Pretendard, Noto Sans KR, sans-serif" font-size="13" font-weight="700" fill="#E2A04F" text-anchor="middle">手</text><text x="58" y="31" font-family="Pretendard, Noto Sans KR, sans-serif" font-size="14" font-weight="800" fill="#3A3631" text-anchor="start">더핸드 관리</text><text x="744" y="31" font-family="Pretendard, Noto Sans KR, sans-serif" font-size="11" font-weight="400" fill="#8B8478" text-anchor="end">PIN 재설정 · 로그아웃</text><text x="66.5" y="84" font-family="Pretendard, Noto Sans KR, sans-serif" font-size="13" font-weight="800" fill="#3A3631" text-anchor="middle">메뉴 관리</text><rect x="32" y="92" width="69" height="3" rx="1.5" fill="#C8902F"></rect><text x="164" y="84" font-family="Pretendard, Noto Sans KR, sans-serif" font-size="13" font-weight="500" fill="#8B8478" text-anchor="middle">페이지·순서</text><text x="268" y="84" font-family="Pretendard, Noto Sans KR, sans-serif" font-size="13" font-weight="500" fill="#8B8478" text-anchor="middle">공지·이벤트</text><text x="365.5" y="84" font-family="Pretendard, Noto Sans KR, sans-serif" font-size="13" font-weight="500" fill="#8B8478" text-anchor="middle">영업 정보</text><rect x="24" y="106" width="720" height="86" rx="10" fill="#fff" stroke="#D8D3C9" stroke-width="1"></rect><text x="40" y="130" font-family="Pretendard, Noto Sans KR, sans-serif" font-size="12.5" font-weight="800" fill="#3A3631" text-anchor="start">일괄 조정</text><text x="110" y="130" font-family="Pretendard, Noto Sans KR, sans-serif" font-size="10.5" font-weight="400" fill="#8B8478" text-anchor="start">적용 범위</text><rect x="164" y="116" width="110" height="22" rx="6" fill="#EDEAE2"></rect><text x="175" y="131" font-family="Pretendard, Noto Sans KR, sans-serif" font-size="11" font-weight="400" fill="#3A3631" text-anchor="start">니혼슈 전체 ▾</text><rect x="40" y="150" width="128" height="28" rx="14" fill="#fff" stroke="#D8D3C9" stroke-width="1"></rect><text x="104" y="168" font-family="Pretendard, Noto Sans KR, sans-serif" font-size="12" font-weight="700" fill="#3A3631" text-anchor="middle">가격 일괄 조정 %</text><rect x="176" y="150" width="110" height="28" rx="14" fill="#fff" stroke="#D8D3C9" stroke-width="1"></rect><text x="231" y="168" font-family="Pretendard, Noto Sans KR, sans-serif" font-size="12" font-weight="700" fill="#3A3631" text-anchor="middle">품절 모두 해제</text><rect x="294" y="150" width="128" height="28" rx="14" fill="#fff" stroke="#D8D3C9" stroke-width="1"></rect><text x="358" y="168" font-family="Pretendard, Noto Sans KR, sans-serif" font-size="12" font-weight="700" fill="#3A3631" text-anchor="middle">태그 일괄 제거</text><rect x="430" y="150" width="140" height="28" rx="14" fill="#fff" stroke="#D8D3C9" stroke-width="1"></rect><text x="500" y="168" font-family="Pretendard, Noto Sans KR, sans-serif" font-size="12" font-weight="700" fill="#3A3631" text-anchor="middle">용량 일괄 변경 ㎖</text><text x="728" y="168" font-family="Pretendard, Noto Sans KR, sans-serif" font-size="10.5" font-weight="400" fill="#8B8478" text-anchor="end">미리보기 후 적용</text><rect x="24" y="208" width="76" height="26" rx="13" fill="#2B2722"></rect><text x="62" y="225" font-family="Pretendard, Noto Sans KR, sans-serif" font-size="11.5" font-weight="700" fill="#fff" text-anchor="middle">니혼슈 8</text><rect x="108" y="208" width="66" height="26" rx="13" fill="#fff" stroke="#D8D3C9" stroke-width="1"></rect><text x="141" y="225" font-family="Pretendard, Noto Sans KR, sans-serif" font-size="11.5" font-weight="700" fill="#8B8478" text-anchor="middle">요리 9</text><rect x="182" y="208" width="66" height="26" rx="13" fill="#fff" stroke="#D8D3C9" stroke-width="1"></rect><text x="215" y="225" font-family="Pretendard, Noto Sans KR, sans-serif" font-size="11.5" font-weight="700" fill="#8B8478" text-anchor="middle">쇼츄 7</text><rect x="256" y="208" width="66" height="26" rx="13" fill="#fff" stroke="#D8D3C9" stroke-width="1"></rect><text x="289" y="225" font-family="Pretendard, Noto Sans KR, sans-serif" font-size="11.5" font-weight="700" fill="#8B8478" text-anchor="middle">음료 0</text><rect x="620" y="207" width="124" height="28" rx="14" fill="#C8902F"></rect><text x="682" y="225" font-family="Pretendard, Noto Sans KR, sans-serif" font-size="12" font-weight="700" fill="#fff" text-anchor="middle">+ 새 메뉴 추가</text><text x="24" y="260" font-family="Pretendard, Noto Sans KR, sans-serif" font-size="10.5" font-weight="400" fill="#8B8478" text-anchor="start">행을 끌어 순서 변경 · 가격/용량은 칸에서 바로 수정</text><line x1="24" y1="270" x2="744" y2="270" stroke="#D8D3C9" stroke-width="1"></line><text x="36" y="303" font-family="Pretendard, Noto Sans KR, sans-serif" font-size="15" font-weight="400" fill="#B5AFA3" text-anchor="start">≡</text><text x="58" y="294" font-family="Pretendard, Noto Sans KR, sans-serif" font-size="13.5" font-weight="700" fill="#3A3631" text-anchor="start">에미시키 몬순</text><text x="58" y="311" font-family="Pretendard, Noto Sans KR, sans-serif" font-size="10.5" font-weight="400" fill="#8B8478" text-anchor="start">준마이다이긴죠 · 후쿠시마</text><text x="162.5" y="294" font-family="Pretendard, Noto Sans KR, sans-serif" font-size="10" font-weight="800" fill="#C8902F" text-anchor="start">★추천</text><rect x="300" y="280" width="80" height="24" rx="5" fill="#fff" stroke="#D8D3C9" stroke-width="1"></rect><text x="372" y="296" font-family="Pretendard, Noto Sans KR, sans-serif" font-size="11.5" font-weight="400" fill="#3A3631" text-anchor="end">18,500</text><rect x="300" y="308" width="44" height="14" rx="4" fill="#EDEAE2"></rect><text x="322" y="318" font-family="Pretendard, Noto Sans KR, sans-serif" font-size="9" font-weight="400" fill="#8B8478" text-anchor="middle">100㎖</text><rect x="392" y="280" width="80" height="24" rx="5" fill="#fff" stroke="#D8D3C9" stroke-width="1"></rect><text x="464" y="296" font-family="Pretendard, Noto Sans KR, sans-serif" font-size="11.5" font-weight="400" fill="#3A3631" text-anchor="end">53,000</text><rect x="392" y="308" width="44" height="14" rx="4" fill="#EDEAE2"></rect><text x="414" y="318" font-family="Pretendard, Noto Sans KR, sans-serif" font-size="9" font-weight="400" fill="#8B8478" text-anchor="middle">300㎖</text><rect x="484" y="280" width="80" height="24" rx="5" fill="#fff" stroke="#D8D3C9" stroke-width="1"></rect><text x="556" y="296" font-family="Pretendard, Noto Sans KR, sans-serif" font-size="11.5" font-weight="400" fill="#3A3631" text-anchor="end">106,000</text><rect x="484" y="308" width="44" height="14" rx="4" fill="#EDEAE2"></rect><text x="506" y="318" font-family="Pretendard, Noto Sans KR, sans-serif" font-size="9" font-weight="400" fill="#8B8478" text-anchor="middle">720㎖</text><rect x="592" y="289" width="34" height="18" rx="9" fill="#EDEAE2" stroke="#D8D3C9" stroke-width="1"></rect><circle cx="601" cy="298" r="7" fill="#fff" stroke="#D8D3C9"></circle><rect x="648" y="286" width="72" height="26" rx="13" fill="#fff" stroke="#D8D3C9" stroke-width="1"></rect><text x="684" y="303" font-family="Pretendard, Noto Sans KR, sans-serif" font-size="12" font-weight="700" fill="#3A3631" text-anchor="middle">수정</text><line x1="24" y1="326" x2="744" y2="326" stroke="#D8D3C9" stroke-width="1"></line><text x="36" y="359" font-family="Pretendard, Noto Sans KR, sans-serif" font-size="15" font-weight="400" fill="#B5AFA3" text-anchor="start">≡</text><text x="58" y="350" font-family="Pretendard, Noto Sans KR, sans-serif" font-size="13.5" font-weight="700" fill="#3A3631" text-anchor="start">자쿠 나카도리</text><text x="58" y="367" font-family="Pretendard, Noto Sans KR, sans-serif" font-size="10.5" font-weight="400" fill="#8B8478" text-anchor="start">준마이다이긴죠 · 미에</text><rect x="300" y="336" width="80" height="24" rx="5" fill="#fff" stroke="#D8D3C9" stroke-width="1"></rect><text x="372" y="352" font-family="Pretendard, Noto Sans KR, sans-serif" font-size="11.5" font-weight="400" fill="#3A3631" text-anchor="end">22,500</text><rect x="300" y="364" width="44" height="14" rx="4" fill="#EDEAE2"></rect><text x="322" y="374" font-family="Pretendard, Noto Sans KR, sans-serif" font-size="9" font-weight="400" fill="#8B8478" text-anchor="middle">100㎖</text><rect x="392" y="336" width="80" height="24" rx="5" fill="#fff" stroke="#D8D3C9" stroke-width="1"></rect><text x="464" y="352" font-family="Pretendard, Noto Sans KR, sans-serif" font-size="11.5" font-weight="400" fill="#3A3631" text-anchor="end">65,000</text><rect x="392" y="364" width="44" height="14" rx="4" fill="#EDEAE2"></rect><text x="414" y="374" font-family="Pretendard, Noto Sans KR, sans-serif" font-size="9" font-weight="400" fill="#8B8478" text-anchor="middle">300㎖</text><rect x="484" y="336" width="80" height="24" rx="5" fill="#fff" stroke="#D8D3C9" stroke-width="1"></rect><text x="556" y="352" font-family="Pretendard, Noto Sans KR, sans-serif" font-size="11.5" font-weight="400" fill="#3A3631" text-anchor="end">130,000</text><rect x="484" y="364" width="44" height="14" rx="4" fill="#EDEAE2"></rect><text x="506" y="374" font-family="Pretendard, Noto Sans KR, sans-serif" font-size="9" font-weight="400" fill="#8B8478" text-anchor="middle">720㎖</text><rect x="592" y="345" width="34" height="18" rx="9" fill="#EDEAE2" stroke="#D8D3C9" stroke-width="1"></rect><circle cx="601" cy="354" r="7" fill="#fff" stroke="#D8D3C9"></circle><rect x="648" y="342" width="72" height="26" rx="13" fill="#fff" stroke="#D8D3C9" stroke-width="1"></rect><text x="684" y="359" font-family="Pretendard, Noto Sans KR, sans-serif" font-size="12" font-weight="700" fill="#3A3631" text-anchor="middle">수정</text><line x1="24" y1="382" x2="744" y2="382" stroke="#D8D3C9" stroke-width="1"></line><text x="36" y="415" font-family="Pretendard, Noto Sans KR, sans-serif" font-size="15" font-weight="400" fill="#B5AFA3" text-anchor="start">≡</text><text x="58" y="406" font-family="Pretendard, Noto Sans KR, sans-serif" font-size="13.5" font-weight="700" fill="#3A3631" text-anchor="start">키노에네 준마이긴죠</text><text x="58" y="423" font-family="Pretendard, Noto Sans KR, sans-serif" font-size="10.5" font-weight="400" fill="#8B8478" text-anchor="start">준마이긴죠 · 치바</text><text x="203" y="406" font-family="Pretendard, Noto Sans KR, sans-serif" font-size="10" font-weight="800" fill="#C8902F" text-anchor="start">NEW</text><rect x="300" y="392" width="80" height="24" rx="5" fill="#fff" stroke="#D8D3C9" stroke-width="1"></rect><text x="372" y="408" font-family="Pretendard, Noto Sans KR, sans-serif" font-size="11.5" font-weight="400" fill="#3A3631" text-anchor="end">12,000</text><rect x="300" y="420" width="44" height="14" rx="4" fill="#EDEAE2"></rect><text x="322" y="430" font-family="Pretendard, Noto Sans KR, sans-serif" font-size="9" font-weight="400" fill="#8B8478" text-anchor="middle">100㎖</text><rect x="392" y="392" width="80" height="24" rx="5" fill="#fff" stroke="#D8D3C9" stroke-width="1"></rect><text x="464" y="408" font-family="Pretendard, Noto Sans KR, sans-serif" font-size="11.5" font-weight="400" fill="#3A3631" text-anchor="end">34,500</text><rect x="392" y="420" width="44" height="14" rx="4" fill="#EDEAE2"></rect><text x="414" y="430" font-family="Pretendard, Noto Sans KR, sans-serif" font-size="9" font-weight="400" fill="#8B8478" text-anchor="middle">300㎖</text><rect x="484" y="392" width="80" height="24" rx="5" fill="#fff" stroke="#D8D3C9" stroke-width="1"></rect><text x="556" y="408" font-family="Pretendard, Noto Sans KR, sans-serif" font-size="11.5" font-weight="400" fill="#3A3631" text-anchor="end">69,000</text><rect x="484" y="420" width="44" height="14" rx="4" fill="#EDEAE2"></rect><text x="506" y="430" font-family="Pretendard, Noto Sans KR, sans-serif" font-size="9" font-weight="400" fill="#8B8478" text-anchor="middle">720㎖</text><rect x="592" y="401" width="34" height="18" rx="9" fill="#EDEAE2" stroke="#D8D3C9" stroke-width="1"></rect><circle cx="601" cy="410" r="7" fill="#fff" stroke="#D8D3C9"></circle><rect x="648" y="398" width="72" height="26" rx="13" fill="#fff" stroke="#D8D3C9" stroke-width="1"></rect><text x="684" y="415" font-family="Pretendard, Noto Sans KR, sans-serif" font-size="12" font-weight="700" fill="#3A3631" text-anchor="middle">수정</text><line x1="24" y1="438" x2="744" y2="438" stroke="#D8D3C9" stroke-width="1"></line><text x="36" y="471" font-family="Pretendard, Noto Sans KR, sans-serif" font-size="15" font-weight="400" fill="#B5AFA3" text-anchor="start">≡</text><text x="58" y="462" font-family="Pretendard, Noto Sans KR, sans-serif" font-size="13.5" font-weight="700" fill="#3A3631" text-anchor="start">하쿠주로 아카즈라</text><text x="58" y="479" font-family="Pretendard, Noto Sans KR, sans-serif" font-size="10.5" font-weight="400" fill="#8B8478" text-anchor="start">준마이 · 효고</text><text x="189.5" y="462" font-family="Pretendard, Noto Sans KR, sans-serif" font-size="10" font-weight="800" fill="#C8902F" text-anchor="start">♨</text><rect x="300" y="448" width="80" height="24" rx="5" fill="#fff" stroke="#D8D3C9" stroke-width="1"></rect><text x="372" y="464" font-family="Pretendard, Noto Sans KR, sans-serif" font-size="11.5" font-weight="400" fill="#3A3631" text-anchor="end">16,300</text><rect x="300" y="476" width="44" height="14" rx="4" fill="#EDEAE2"></rect><text x="322" y="486" font-family="Pretendard, Noto Sans KR, sans-serif" font-size="9" font-weight="400" fill="#8B8478" text-anchor="middle">100㎖</text><rect x="392" y="448" width="80" height="24" rx="5" fill="#fff" stroke="#D8D3C9" stroke-width="1"></rect><text x="464" y="464" font-family="Pretendard, Noto Sans KR, sans-serif" font-size="11.5" font-weight="400" fill="#3A3631" text-anchor="end">46,500</text><rect x="392" y="476" width="44" height="14" rx="4" fill="#EDEAE2"></rect><text x="414" y="486" font-family="Pretendard, Noto Sans KR, sans-serif" font-size="9" font-weight="400" fill="#8B8478" text-anchor="middle">300㎖</text><rect x="484" y="448" width="80" height="24" rx="5" fill="#fff" stroke="#D8D3C9" stroke-width="1"></rect><text x="556" y="464" font-family="Pretendard, Noto Sans KR, sans-serif" font-size="11.5" font-weight="400" fill="#3A3631" text-anchor="end">93,000</text><rect x="484" y="476" width="44" height="14" rx="4" fill="#EDEAE2"></rect><text x="506" y="486" font-family="Pretendard, Noto Sans KR, sans-serif" font-size="9" font-weight="400" fill="#8B8478" text-anchor="middle">720㎖</text><rect x="592" y="457" width="34" height="18" rx="9" fill="#EDEAE2" stroke="#D8D3C9" stroke-width="1"></rect><circle cx="601" cy="466" r="7" fill="#fff" stroke="#D8D3C9"></circle><rect x="648" y="454" width="72" height="26" rx="13" fill="#fff" stroke="#D8D3C9" stroke-width="1"></rect><text x="684" y="471" font-family="Pretendard, Noto Sans KR, sans-serif" font-size="12" font-weight="700" fill="#3A3631" text-anchor="middle">수정</text><line x1="24" y1="494" x2="744" y2="494" stroke="#D8D3C9" stroke-width="1"></line><text x="36" y="527" font-family="Pretendard, Noto Sans KR, sans-serif" font-size="15" font-weight="400" fill="#B5AFA3" text-anchor="start">≡</text><text x="58" y="518" font-family="Pretendard, Noto Sans KR, sans-serif" font-size="13.5" font-weight="700" fill="#3A3631" text-anchor="start">스이게이 코우이쿠</text><text x="58" y="535" font-family="Pretendard, Noto Sans KR, sans-serif" font-size="10.5" font-weight="400" fill="#8B8478" text-anchor="start">준마이긴죠 · 고치</text><rect x="300" y="504" width="80" height="24" rx="5" fill="#fff" stroke="#D8D3C9" stroke-width="1"></rect><text x="372" y="520" font-family="Pretendard, Noto Sans KR, sans-serif" font-size="11.5" font-weight="400" fill="#3A3631" text-anchor="end">16,000</text><rect x="300" y="532" width="44" height="14" rx="4" fill="#EDEAE2"></rect><text x="322" y="542" font-family="Pretendard, Noto Sans KR, sans-serif" font-size="9" font-weight="400" fill="#8B8478" text-anchor="middle">100㎖</text><rect x="392" y="504" width="80" height="24" rx="5" fill="#fff" stroke="#D8D3C9" stroke-width="1"></rect><text x="464" y="520" font-family="Pretendard, Noto Sans KR, sans-serif" font-size="11.5" font-weight="400" fill="#3A3631" text-anchor="end">45,500</text><rect x="392" y="532" width="44" height="14" rx="4" fill="#EDEAE2"></rect><text x="414" y="542" font-family="Pretendard, Noto Sans KR, sans-serif" font-size="9" font-weight="400" fill="#8B8478" text-anchor="middle">300㎖</text><rect x="484" y="504" width="80" height="24" rx="5" fill="#fff" stroke="#D8D3C9" stroke-width="1"></rect><text x="556" y="520" font-family="Pretendard, Noto Sans KR, sans-serif" font-size="11.5" font-weight="400" fill="#3A3631" text-anchor="end">—</text><rect x="484" y="532" width="44" height="14" rx="4" fill="#EDEAE2"></rect><text x="506" y="542" font-family="Pretendard, Noto Sans KR, sans-serif" font-size="9" font-weight="400" fill="#8B8478" text-anchor="middle">720㎖</text><rect x="592" y="513" width="34" height="18" rx="9" fill="#EDEAE2" stroke="#D8D3C9" stroke-width="1"></rect><circle cx="601" cy="522" r="7" fill="#fff" stroke="#D8D3C9"></circle><rect x="648" y="510" width="72" height="26" rx="13" fill="#fff" stroke="#D8D3C9" stroke-width="1"></rect><text x="684" y="527" font-family="Pretendard, Noto Sans KR, sans-serif" font-size="12" font-weight="700" fill="#3A3631" text-anchor="middle">수정</text><line x1="24" y1="550" x2="744" y2="550" stroke="#D8D3C9" stroke-width="1"></line><text x="36" y="583" font-family="Pretendard, Noto Sans KR, sans-serif" font-size="15" font-weight="400" fill="#B5AFA3" text-anchor="start">≡</text><text x="58" y="574" font-family="Pretendard, Noto Sans KR, sans-serif" font-size="13.5" font-weight="700" fill="#3A3631" text-anchor="start">이요카기야 무여과</text><text x="58" y="591" font-family="Pretendard, Noto Sans KR, sans-serif" font-size="10.5" font-weight="400" fill="#8B8478" text-anchor="start">준마이긴죠 · 에히메</text><text x="189.5" y="574" font-family="Pretendard, Noto Sans KR, sans-serif" font-size="10" font-weight="800" fill="#C8902F" text-anchor="start">♨</text><rect x="300" y="560" width="80" height="24" rx="5" fill="#fff" stroke="#D8D3C9" stroke-width="1"></rect><text x="372" y="576" font-family="Pretendard, Noto Sans KR, sans-serif" font-size="11.5" font-weight="400" fill="#3A3631" text-anchor="end">13,500</text><rect x="300" y="588" width="44" height="14" rx="4" fill="#EDEAE2"></rect><text x="322" y="598" font-family="Pretendard, Noto Sans KR, sans-serif" font-size="9" font-weight="400" fill="#8B8478" text-anchor="middle">100㎖</text><rect x="392" y="560" width="80" height="24" rx="5" fill="#fff" stroke="#D8D3C9" stroke-width="1"></rect><text x="464" y="576" font-family="Pretendard, Noto Sans KR, sans-serif" font-size="11.5" font-weight="400" fill="#3A3631" text-anchor="end">38,500</text><rect x="392" y="588" width="44" height="14" rx="4" fill="#EDEAE2"></rect><text x="414" y="598" font-family="Pretendard, Noto Sans KR, sans-serif" font-size="9" font-weight="400" fill="#8B8478" text-anchor="middle">300㎖</text><rect x="484" y="560" width="80" height="24" rx="5" fill="#fff" stroke="#D8D3C9" stroke-width="1"></rect><text x="556" y="576" font-family="Pretendard, Noto Sans KR, sans-serif" font-size="11.5" font-weight="400" fill="#3A3631" text-anchor="end">77,000</text><rect x="484" y="588" width="44" height="14" rx="4" fill="#EDEAE2"></rect><text x="506" y="598" font-family="Pretendard, Noto Sans KR, sans-serif" font-size="9" font-weight="400" fill="#8B8478" text-anchor="middle">720㎖</text><rect x="592" y="569" width="34" height="18" rx="9" fill="#EDEAE2" stroke="#D8D3C9" stroke-width="1"></rect><circle cx="601" cy="578" r="7" fill="#fff" stroke="#D8D3C9"></circle><rect x="648" y="566" width="72" height="26" rx="13" fill="#fff" stroke="#D8D3C9" stroke-width="1"></rect><text x="684" y="583" font-family="Pretendard, Noto Sans KR, sans-serif" font-size="12" font-weight="700" fill="#3A3631" text-anchor="middle">수정</text><line x1="24" y1="606" x2="744" y2="606" stroke="#D8D3C9" stroke-width="1"></line><rect x="24" y="606" width="720" height="56" fill="#F3EFE7"></rect><text x="36" y="639" font-family="Pretendard, Noto Sans KR, sans-serif" font-size="15" font-weight="400" fill="#B5AFA3" text-anchor="start">≡</text><text x="58" y="630" font-family="Pretendard, Noto Sans KR, sans-serif" font-size="13.5" font-weight="700" fill="#8B8478" text-anchor="start">치요무스비 고우리키</text><text x="58" y="647" font-family="Pretendard, Noto Sans KR, sans-serif" font-size="10.5" font-weight="400" fill="#8B8478" text-anchor="start">준마이다이긴죠 · 돗토리</text><rect x="300" y="616" width="80" height="24" rx="5" fill="#EDEAE2" stroke="#D8D3C9" stroke-width="1"></rect><text x="372" y="632" font-family="Pretendard, Noto Sans KR, sans-serif" font-size="11.5" font-weight="400" fill="#8B8478" text-anchor="end">14,500</text><rect x="300" y="644" width="44" height="14" rx="4" fill="#EDEAE2"></rect><text x="322" y="654" font-family="Pretendard, Noto Sans KR, sans-serif" font-size="9" font-weight="400" fill="#8B8478" text-anchor="middle">100㎖</text><rect x="392" y="616" width="80" height="24" rx="5" fill="#EDEAE2" stroke="#D8D3C9" stroke-width="1"></rect><text x="464" y="632" font-family="Pretendard, Noto Sans KR, sans-serif" font-size="11.5" font-weight="400" fill="#8B8478" text-anchor="end">41,000</text><rect x="392" y="644" width="44" height="14" rx="4" fill="#EDEAE2"></rect><text x="414" y="654" font-family="Pretendard, Noto Sans KR, sans-serif" font-size="9" font-weight="400" fill="#8B8478" text-anchor="middle">300㎖</text><rect x="484" y="616" width="80" height="24" rx="5" fill="#EDEAE2" stroke="#D8D3C9" stroke-width="1"></rect><text x="556" y="632" font-family="Pretendard, Noto Sans KR, sans-serif" font-size="11.5" font-weight="400" fill="#8B8478" text-anchor="end">82,000</text><rect x="484" y="644" width="44" height="14" rx="4" fill="#EDEAE2"></rect><text x="506" y="654" font-family="Pretendard, Noto Sans KR, sans-serif" font-size="9" font-weight="400" fill="#8B8478" text-anchor="middle">720㎖</text><rect x="592" y="625" width="34" height="18" rx="9" fill="#C8902F"></rect><circle cx="617" cy="634" r="7" fill="#fff" stroke="#D8D3C9"></circle><rect x="648" y="622" width="72" height="26" rx="13" fill="#fff" stroke="#D8D3C9" stroke-width="1"></rect><text x="684" y="639" font-family="Pretendard, Noto Sans KR, sans-serif" font-size="12" font-weight="700" fill="#3A3631" text-anchor="middle">수정</text><line x1="24" y1="662" x2="744" y2="662" stroke="#D8D3C9" stroke-width="1"></line><text x="36" y="695" font-family="Pretendard, Noto Sans KR, sans-serif" font-size="15" font-weight="400" fill="#B5AFA3" text-anchor="start">≡</text><text x="58" y="686" font-family="Pretendard, Noto Sans KR, sans-serif" font-size="13.5" font-weight="700" fill="#3A3631" text-anchor="start">쿠즈류 준마이</text><text x="58" y="703" font-family="Pretendard, Noto Sans KR, sans-serif" font-size="10.5" font-weight="400" fill="#8B8478" text-anchor="start">준마이 · 후쿠이</text><text x="162.5" y="686" font-family="Pretendard, Noto Sans KR, sans-serif" font-size="10" font-weight="800" fill="#C8902F" text-anchor="start">여름</text><rect x="300" y="672" width="80" height="24" rx="5" fill="#fff" stroke="#D8D3C9" stroke-width="1"></rect><text x="372" y="688" font-family="Pretendard, Noto Sans KR, sans-serif" font-size="11.5" font-weight="400" fill="#3A3631" text-anchor="end">13,500</text><rect x="300" y="700" width="44" height="14" rx="4" fill="#EDEAE2"></rect><text x="322" y="710" font-family="Pretendard, Noto Sans KR, sans-serif" font-size="9" font-weight="400" fill="#8B8478" text-anchor="middle">100㎖</text><rect x="392" y="672" width="80" height="24" rx="5" fill="#fff" stroke="#D8D3C9" stroke-width="1"></rect><text x="464" y="688" font-family="Pretendard, Noto Sans KR, sans-serif" font-size="11.5" font-weight="400" fill="#3A3631" text-anchor="end">38,500</text><rect x="392" y="700" width="44" height="14" rx="4" fill="#EDEAE2"></rect><text x="414" y="710" font-family="Pretendard, Noto Sans KR, sans-serif" font-size="9" font-weight="400" fill="#8B8478" text-anchor="middle">300㎖</text><rect x="484" y="672" width="80" height="24" rx="5" fill="#fff" stroke="#D8D3C9" stroke-width="1"></rect><text x="556" y="688" font-family="Pretendard, Noto Sans KR, sans-serif" font-size="11.5" font-weight="400" fill="#3A3631" text-anchor="end">111,000</text><rect x="484" y="700" width="44" height="14" rx="4" fill="#EDEAE2"></rect><text x="506" y="710" font-family="Pretendard, Noto Sans KR, sans-serif" font-size="9" font-weight="400" fill="#8B8478" text-anchor="middle">720㎖</text><rect x="592" y="681" width="34" height="18" rx="9" fill="#EDEAE2" stroke="#D8D3C9" stroke-width="1"></rect><circle cx="601" cy="690" r="7" fill="#fff" stroke="#D8D3C9"></circle><rect x="648" y="678" width="72" height="26" rx="13" fill="#fff" stroke="#D8D3C9" stroke-width="1"></rect><text x="684" y="695" font-family="Pretendard, Noto Sans KR, sans-serif" font-size="12" font-weight="700" fill="#3A3631" text-anchor="middle">수정</text><line x1="24" y1="718" x2="744" y2="718" stroke="#D8D3C9" stroke-width="1"></line><rect x="24" y="736" width="720" height="44" rx="10" fill="none" stroke="#D8D3C9" stroke-width="1" stroke-dasharray="5 4"></rect><text x="384" y="763" font-family="Pretendard, Noto Sans KR, sans-serif" font-size="12" font-weight="400" fill="#8B8478" text-anchor="middle">+ 새 메뉴 추가 (사진·설명·코멘트는 추가 후 수정 화면에서)</text><text x="24" y="804" font-family="Pretendard, Noto Sans KR, sans-serif" font-size="10.5" font-weight="400" fill="#8B8478" text-anchor="start">모든 변경은 저장 즉시 손님 메뉴판에 반영됩니다</text></svg>