<svg xmlns="http://www.w3.org/2000/svg" width="768" height="1656" viewBox="0 0 768 1656"><rect width="768" height="1656" fill="#FDFCFB"></rect><text x="384" y="44" font-family="Pretendard, Noto Sans KR, sans-serif" font-size="11" font-weight="700" fill="#9A8F80" text-anchor="middle" letter-spacing="4">THE HAND</text><line x1="289" y1="72" x2="343" y2="72" stroke="#D8D0C4" stroke-width="1"></line><line x1="425" y1="72" x2="479" y2="72" stroke="#D8D0C4" stroke-width="1"></line><text x="384" y="78" font-family="Noto Serif KR, serif" font-size="28" font-weight="700" fill="#2D3436" text-anchor="middle" letter-spacing="3">日本酒</text><text x="384" y="104" font-family="Pretendard, Noto Sans KR, sans-serif" font-size="12" font-weight="400" fill="#636E72" text-anchor="middle">전국 8개 지역에서 온 사케</text><line x1="28" y1="124" x2="740" y2="124" stroke="#EDE8E0" stroke-width="1"></line><text x="28" y="156" font-family="Noto Serif KR, serif" font-size="17" font-weight="700" fill="#2D3436" text-anchor="start">준마이 다이긴죠</text><text x="170" y="156" font-family="Pretendard, Noto Sans KR, sans-serif" font-size="12" font-weight="400" fill="#9A8F80" text-anchor="start">純米大吟醸</text><text x="740" y="156" font-family="Pretendard, Noto Sans KR, sans-serif" font-size="11" font-weight="400" fill="#9A8F80" text-anchor="end">정미보합 50% 이하 · 가장 화려한 향</text><line x1="28" y1="168" x2="740" y2="168" stroke="#E0D9CC" stroke-width="1.5"></line><rect x="28" y="184" width="50" height="104" rx="8" fill="#F5F1EC" stroke="#D8D0C4" stroke-width="1" stroke-dasharray="3 3"></rect><text x="53" y="241" font-family="Pretendard, Noto Sans KR, sans-serif" font-size="10" font-weight="400" fill="#B5AB99" text-anchor="middle">보틀</text><g opacity="1"><text x="94" y="202" font-family="Pretendard, Noto Sans KR, sans-serif" font-size="14" font-weight="400" fill="#E0962E" text-anchor="start">★</text><rect x="110" y="194" width="135.51999999999998" height="11" fill="rgba(243,156,18,0.42)"></rect><text x="112" y="202" font-family="Noto Serif KR, serif" font-size="18.5" font-weight="700" fill="#2D3436" text-anchor="start">에미시키 몬순</text><text x="249.1" y="202" font-family="Pretendard, Noto Sans KR, sans-serif" font-size="13" font-weight="400" fill="#636E72" text-anchor="start">(후쿠시마)</text><text x="94" y="222" font-family="Pretendard, Noto Sans KR, sans-serif" font-size="11.5" font-weight="400" fill="#8E8576" text-anchor="start">에미시키</text><text x="94" y="244" font-family="Pretendard, Noto Sans KR, sans-serif" font-size="12.5" font-weight="400" fill="#5C564E" text-anchor="start">트로피컬한 향과 달콤함, 바나나·망고 같은 열대과실의 화려함.</text><rect x="94" y="256" width="440" height="30" rx="8" fill="#F5F1EC"></rect><rect x="104" y="263" width="46" height="15" rx="4" fill="#FBF1DC"></rect><text x="127" y="274" font-family="Pretendard, Noto Sans KR, sans-serif" font-size="9" font-weight="800" fill="#B07A1E" text-anchor="middle">소믈리에</text><text x="158" y="275" font-family="Pretendard, Noto Sans KR, sans-serif" font-size="11.5" font-weight="400" fill="#5C564E" text-anchor="start">사케가 처음이라면 자신 있게 권하는 한 잔이에요.</text><text x="94" y="308" font-family="Pretendard, Noto Sans KR, sans-serif" font-size="10.5" font-weight="700" fill="#9A8F80" text-anchor="start">추천 페어링</text><circle cx="166" cy="304" r="1.5" fill="#C9BFB0"></circle><text x="174" y="308" font-family="Pretendard, Noto Sans KR, sans-serif" font-size="12" font-weight="400" fill="#5C564E" text-anchor="start">크림치즈·제철 과일</text><text x="94" y="332" font-family="Pretendard, Noto Sans KR, sans-serif" font-size="10.5" font-weight="400" fill="#9A8F80" text-anchor="start">정미보합 50% · 일본주도 비공개 · 산도 비공개 · 도수 17%</text></g><g opacity="1"><g opacity="1"><g transform="translate(598.2,195.25) scale(0.85)"><path d="M3 5 H13 L11.3 15.5 Q11.1 16.3 10.2 16.3 H5.8 Q4.9 16.3 4.7 15.5 Z" fill="#8A7F6E33" stroke="#8A7F6E" stroke-width="1.4" stroke-linejoin="round"></path><path d="M4.4 8 H11.6" stroke="#8A7F6E" stroke-width="1" opacity="0.45"></path></g><text x="605" y="222" font-family="Pretendard, Noto Sans KR, sans-serif" font-size="10" font-weight="700" fill="#636E72" text-anchor="middle">잔술</text><text x="605" y="233" font-family="Pretendard, Noto Sans KR, sans-serif" font-size="8.5" font-weight="400" fill="#9A8F80" text-anchor="middle">100㎖</text><text x="605" y="248" font-family="Pretendard, Noto Sans KR, sans-serif" font-size="12.5" font-weight="700" fill="#2D3436" text-anchor="middle">18,500</text></g><g opacity="1"><g transform="translate(656.2,189.6) scale(0.8)"><path d="M8 2.5 H14 V5 Q14 6.2 15.2 7 Q18 9 18 14.5 Q18 23 11 23 Q4 23 4 14.5 Q4 9 6.8 7 Q8 6.2 8 5 Z" fill="#8A7F6E33" stroke="#8A7F6E" stroke-width="1.4" stroke-linejoin="round"></path></g><text x="665" y="222" font-family="Pretendard, Noto Sans KR, sans-serif" font-size="10" font-weight="700" fill="#636E72" text-anchor="middle">도쿠리</text><text x="665" y="233" font-family="Pretendard, Noto Sans KR, sans-serif" font-size="8.5" font-weight="400" fill="#9A8F80" text-anchor="middle">300㎖</text><text x="665" y="248" font-family="Pretendard, Noto Sans KR, sans-serif" font-size="12.5" font-weight="700" fill="#2D3436" text-anchor="middle">53,000</text></g><g opacity="1"><g transform="translate(717.8,183.2) scale(0.8)"><path d="M7 2 H11 V6.5 Q11 8.5 12.4 10 Q14 11.7 14 14.5 V30 Q14 32 12 32 H6 Q4 32 4 30 V14.5 Q4 11.7 5.6 10 Q7 8.5 7 6.5 Z" fill="#8A7F6E33" stroke="#8A7F6E" stroke-width="1.4" stroke-linejoin="round"></path></g><text x="725" y="222" font-family="Pretendard, Noto Sans KR, sans-serif" font-size="10" font-weight="700" fill="#636E72" text-anchor="middle">보틀</text><text x="725" y="233" font-family="Pretendard, Noto Sans KR, sans-serif" font-size="8.5" font-weight="400" fill="#9A8F80" text-anchor="middle">720㎖</text><text x="725" y="248" font-family="Pretendard, Noto Sans KR, sans-serif" font-size="12.5" font-weight="700" fill="#2D3436" text-anchor="middle">106,000</text></g></g><line x1="28" y1="340" x2="740" y2="340" stroke="#EDE8E0" stroke-width="1"></line><rect x="28" y="356" width="50" height="104" rx="8" fill="#F5F1EC" stroke="#D8D0C4" stroke-width="1" stroke-dasharray="3 3"></rect><text x="53" y="413" font-family="Pretendard, Noto Sans KR, sans-serif" font-size="10" font-weight="400" fill="#B5AB99" text-anchor="middle">보틀</text><g opacity="1"><text x="94" y="374" font-family="Noto Serif KR, serif" font-size="18.5" font-weight="700" fill="#2D3436" text-anchor="start">자쿠 나카도리</text><text x="231.1" y="374" font-family="Pretendard, Noto Sans KR, sans-serif" font-size="13" font-weight="400" fill="#636E72" text-anchor="start">(미에)</text><text x="94" y="394" font-family="Pretendard, Noto Sans KR, sans-serif" font-size="11.5" font-weight="400" fill="#8E8576" text-anchor="start">시미즈세이자부로</text><text x="94" y="416" font-family="Pretendard, Noto Sans KR, sans-serif" font-size="12.5" font-weight="400" fill="#5C564E" text-anchor="start">가장 맑고 깨끗한 나카도리. 실크 같은 감촉과 화려한 긴죠향.</text><rect x="94" y="428" width="440" height="30" rx="8" fill="#F5F1EC"></rect><rect x="104" y="435" width="46" height="15" rx="4" fill="#FBF1DC"></rect><text x="127" y="446" font-family="Pretendard, Noto Sans KR, sans-serif" font-size="9" font-weight="800" fill="#B07A1E" text-anchor="middle">소믈리에</text><text x="158" y="447" font-family="Pretendard, Noto Sans KR, sans-serif" font-size="11.5" font-weight="400" fill="#5C564E" text-anchor="start">와인잔에 차갑게. 향이 두 배로 열려요.</text><text x="94" y="482" font-family="Pretendard, Noto Sans KR, sans-serif" font-size="10.5" font-weight="400" fill="#9A8F80" text-anchor="start">정미보합 50% · 일본주도 +1 · 산도 1.6 · 도수 16%</text></g><g opacity="1"><g opacity="1"><g transform="translate(598.2,367.25) scale(0.85)"><path d="M3 5 H13 L11.3 15.5 Q11.1 16.3 10.2 16.3 H5.8 Q4.9 16.3 4.7 15.5 Z" fill="#8A7F6E33" stroke="#8A7F6E" stroke-width="1.4" stroke-linejoin="round"></path><path d="M4.4 8 H11.6" stroke="#8A7F6E" stroke-width="1" opacity="0.45"></path></g><text x="605" y="394" font-family="Pretendard, Noto Sans KR, sans-serif" font-size="10" font-weight="700" fill="#636E72" text-anchor="middle">잔술</text><text x="605" y="405" font-family="Pretendard, Noto Sans KR, sans-serif" font-size="8.5" font-weight="400" fill="#9A8F80" text-anchor="middle">100㎖</text><text x="605" y="420" font-family="Pretendard, Noto Sans KR, sans-serif" font-size="12.5" font-weight="700" fill="#2D3436" text-anchor="middle">22,500</text></g><g opacity="1"><g transform="translate(656.2,361.6) scale(0.8)"><path d="M8 2.5 H14 V5 Q14 6.2 15.2 7 Q18 9 18 14.5 Q18 23 11 23 Q4 23 4 14.5 Q4 9 6.8 7 Q8 6.2 8 5 Z" fill="#8A7F6E33" stroke="#8A7F6E" stroke-width="1.4" stroke-linejoin="round"></path></g><text x="665" y="394" font-family="Pretendard, Noto Sans KR, sans-serif" font-size="10" font-weight="700" fill="#636E72" text-anchor="middle">도쿠리</text><text x="665" y="405" font-family="Pretendard, Noto Sans KR, sans-serif" font-size="8.5" font-weight="400" fill="#9A8F80" text-anchor="middle">300㎖</text><text x="665" y="420" font-family="Pretendard, Noto Sans KR, sans-serif" font-size="12.5" font-weight="700" fill="#2D3436" text-anchor="middle">65,000</text></g><g opacity="1"><g transform="translate(717.8,355.2) scale(0.8)"><path d="M7 2 H11 V6.5 Q11 8.5 12.4 10 Q14 11.7 14 14.5 V30 Q14 32 12 32 H6 Q4 32 4 30 V14.5 Q4 11.7 5.6 10 Q7 8.5 7 6.5 Z" fill="#8A7F6E33" stroke="#8A7F6E" stroke-width="1.4" stroke-linejoin="round"></path></g><text x="725" y="394" font-family="Pretendard, Noto Sans KR, sans-serif" font-size="10" font-weight="700" fill="#636E72" text-anchor="middle">보틀</text><text x="725" y="405" font-family="Pretendard, Noto Sans KR, sans-serif" font-size="8.5" font-weight="400" fill="#9A8F80" text-anchor="middle">720㎖</text><text x="725" y="420" font-family="Pretendard, Noto Sans KR, sans-serif" font-size="12.5" font-weight="700" fill="#2D3436" text-anchor="middle">130,000</text></g></g><line x1="28" y1="490" x2="740" y2="490" stroke="#EDE8E0" stroke-width="1"></line><rect x="28" y="506" width="50" height="104" rx="8" fill="#F5F1EC" stroke="#D8D0C4" stroke-width="1" stroke-dasharray="3 3"></rect><text x="53" y="563" font-family="Pretendard, Noto Sans KR, sans-serif" font-size="10" font-weight="400" fill="#B5AB99" text-anchor="middle">보틀</text><g opacity="0.45"><text x="94" y="524" font-family="Noto Serif KR, serif" font-size="18.5" font-weight="700" fill="#2D3436" text-anchor="start">치요무스비 고우리키</text><text x="289" y="524" font-family="Pretendard, Noto Sans KR, sans-serif" font-size="13" font-weight="400" fill="#636E72" text-anchor="start">(돗토리)</text><text x="94" y="544" font-family="Pretendard, Noto Sans KR, sans-serif" font-size="11.5" font-weight="400" fill="#8E8576" text-anchor="start">치요무스비</text><text x="94" y="566" font-family="Pretendard, Noto Sans KR, sans-serif" font-size="12.5" font-weight="400" fill="#5C564E" text-anchor="start">숙성될수록 깊어지는 맛, 강력하고 또렷한 감칠맛. 차게.</text><text x="94" y="588" font-family="Pretendard, Noto Sans KR, sans-serif" font-size="10.5" font-weight="400" fill="#9A8F80" text-anchor="start">정미보합 50% · 일본주도 +6 · 산도 1.6 · 도수 16%</text></g><rect x="356.5" y="507" width="76" height="22" rx="11" fill="#C84B31"></rect><text x="394.5" y="522" font-family="Pretendard, Noto Sans KR, sans-serif" font-size="12" font-weight="800" fill="#FFFFFF" text-anchor="middle">일시 품절</text><g opacity="0.45"><g opacity="1"><g transform="translate(598.2,517.25) scale(0.85)"><path d="M3 5 H13 L11.3 15.5 Q11.1 16.3 10.2 16.3 H5.8 Q4.9 16.3 4.7 15.5 Z" fill="#8A7F6E33" stroke="#8A7F6E" stroke-width="1.4" stroke-linejoin="round"></path><path d="M4.4 8 H11.6" stroke="#8A7F6E" stroke-width="1" opacity="0.45"></path></g><text x="605" y="544" font-family="Pretendard, Noto Sans KR, sans-serif" font-size="10" font-weight="700" fill="#636E72" text-anchor="middle">잔술</text><text x="605" y="555" font-family="Pretendard, Noto Sans KR, sans-serif" font-size="8.5" font-weight="400" fill="#9A8F80" text-anchor="middle">100㎖</text><text x="605" y="570" font-family="Pretendard, Noto Sans KR, sans-serif" font-size="12.5" font-weight="700" fill="#2D3436" text-anchor="middle">14,500</text></g><g opacity="1"><g transform="translate(656.2,511.6) scale(0.8)"><path d="M8 2.5 H14 V5 Q14 6.2 15.2 7 Q18 9 18 14.5 Q18 23 11 23 Q4 23 4 14.5 Q4 9 6.8 7 Q8 6.2 8 5 Z" fill="#8A7F6E33" stroke="#8A7F6E" stroke-width="1.4" stroke-linejoin="round"></path></g><text x="665" y="544" font-family="Pretendard, Noto Sans KR, sans-serif" font-size="10" font-weight="700" fill="#636E72" text-anchor="middle">도쿠리</text><text x="665" y="555" font-family="Pretendard, Noto Sans KR, sans-serif" font-size="8.5" font-weight="400" fill="#9A8F80" text-anchor="middle">300㎖</text><text x="665" y="570" font-family="Pretendard, Noto Sans KR, sans-serif" font-size="12.5" font-weight="700" fill="#2D3436" text-anchor="middle">41,000</text></g><g opacity="1"><g transform="translate(717.8,505.2) scale(0.8)"><path d="M7 2 H11 V6.5 Q11 8.5 12.4 10 Q14 11.7 14 14.5 V30 Q14 32 12 32 H6 Q4 32 4 30 V14.5 Q4 11.7 5.6 10 Q7 8.5 7 6.5 Z" fill="#8A7F6E33" stroke="#8A7F6E" stroke-width="1.4" stroke-linejoin="round"></path></g><text x="725" y="544" font-family="Pretendard, Noto Sans KR, sans-serif" font-size="10" font-weight="700" fill="#636E72" text-anchor="middle">보틀</text><text x="725" y="555" font-family="Pretendard, Noto Sans KR, sans-serif" font-size="8.5" font-weight="400" fill="#9A8F80" text-anchor="middle">720㎖</text><text x="725" y="570" font-family="Pretendard, Noto Sans KR, sans-serif" font-size="12.5" font-weight="700" fill="#2D3436" text-anchor="middle">82,000</text></g></g><text x="28" y="660" font-family="Noto Serif KR, serif" font-size="17" font-weight="700" fill="#2D3436" text-anchor="start">준마이 긴죠</text><text x="137" y="660" font-family="Pretendard, Noto Sans KR, sans-serif" font-size="12" font-weight="400" fill="#9A8F80" text-anchor="start">純米吟醸</text><text x="740" y="660" font-family="Pretendard, Noto Sans KR, sans-serif" font-size="11" font-weight="400" fill="#9A8F80" text-anchor="end">정미보합 60% 이하 · 향과 맛의 균형</text><line x1="28" y1="672" x2="740" y2="672" stroke="#E0D9CC" stroke-width="1.5"></line><rect x="28" y="688" width="50" height="104" rx="8" fill="#F5F1EC" stroke="#D8D0C4" stroke-width="1" stroke-dasharray="3 3"></rect><text x="53" y="745" font-family="Pretendard, Noto Sans KR, sans-serif" font-size="10" font-weight="400" fill="#B5AB99" text-anchor="middle">보틀</text><g opacity="1"><text x="94" y="706" font-family="Noto Serif KR, serif" font-size="18.5" font-weight="700" fill="#2D3436" text-anchor="start">키노에네 준마이긴죠</text><text x="289" y="701" font-family="Pretendard, Noto Sans KR, sans-serif" font-size="9.5" font-weight="800" fill="#C84B31" text-anchor="start">NEW</text><text x="319" y="706" font-family="Pretendard, Noto Sans KR, sans-serif" font-size="13" font-weight="400" fill="#636E72" text-anchor="start">(치바)</text><text x="94" y="726" font-family="Pretendard, Noto Sans KR, sans-serif" font-size="11.5" font-weight="400" fill="#8E8576" text-anchor="start">이이누마혼케</text><text x="94" y="748" font-family="Pretendard, Noto Sans KR, sans-serif" font-size="12.5" font-weight="400" fill="#5C564E" text-anchor="start">청사과의 상큼함과 약한 탄산감으로 목넘김이 좋은 사케.</text><text x="94" y="768" font-family="Pretendard, Noto Sans KR, sans-serif" font-size="10.5" font-weight="700" fill="#9A8F80" text-anchor="start">추천 페어링</text><circle cx="166" cy="764" r="1.5" fill="#C9BFB0"></circle><text x="174" y="768" font-family="Pretendard, Noto Sans KR, sans-serif" font-size="12" font-weight="400" fill="#5C564E" text-anchor="start">튀김·가벼운 사시미</text><text x="94" y="792" font-family="Pretendard, Noto Sans KR, sans-serif" font-size="10.5" font-weight="400" fill="#9A8F80" text-anchor="start">정미보합 65% · 일본주도 ±0 · 산도 1.4 · 도수 16%</text></g><g opacity="1"><g opacity="1"><g transform="translate(598.2,699.25) scale(0.85)"><path d="M3 5 H13 L11.3 15.5 Q11.1 16.3 10.2 16.3 H5.8 Q4.9 16.3 4.7 15.5 Z" fill="#8A7F6E33" stroke="#8A7F6E" stroke-width="1.4" stroke-linejoin="round"></path><path d="M4.4 8 H11.6" stroke="#8A7F6E" stroke-width="1" opacity="0.45"></path></g><text x="605" y="726" font-family="Pretendard, Noto Sans KR, sans-serif" font-size="10" font-weight="700" fill="#636E72" text-anchor="middle">잔술</text><text x="605" y="737" font-family="Pretendard, Noto Sans KR, sans-serif" font-size="8.5" font-weight="400" fill="#9A8F80" text-anchor="middle">100㎖</text><text x="605" y="752" font-family="Pretendard, Noto Sans KR, sans-serif" font-size="12.5" font-weight="700" fill="#2D3436" text-anchor="middle">12,000</text></g><g opacity="1"><g transform="translate(656.2,693.6) scale(0.8)"><path d="M8 2.5 H14 V5 Q14 6.2 15.2 7 Q18 9 18 14.5 Q18 23 11 23 Q4 23 4 14.5 Q4 9 6.8 7 Q8 6.2 8 5 Z" fill="#8A7F6E33" stroke="#8A7F6E" stroke-width="1.4" stroke-linejoin="round"></path></g><text x="665" y="726" font-family="Pretendard, Noto Sans KR, sans-serif" font-size="10" font-weight="700" fill="#636E72" text-anchor="middle">도쿠리</text><text x="665" y="737" font-family="Pretendard, Noto Sans KR, sans-serif" font-size="8.5" font-weight="400" fill="#9A8F80" text-anchor="middle">300㎖</text><text x="665" y="752" font-family="Pretendard, Noto Sans KR, sans-serif" font-size="12.5" font-weight="700" fill="#2D3436" text-anchor="middle">34,500</text></g><g opacity="1"><g transform="translate(717.8,687.2) scale(0.8)"><path d="M7 2 H11 V6.5 Q11 8.5 12.4 10 Q14 11.7 14 14.5 V30 Q14 32 12 32 H6 Q4 32 4 30 V14.5 Q4 11.7 5.6 10 Q7 8.5 7 6.5 Z" fill="#8A7F6E33" stroke="#8A7F6E" stroke-width="1.4" stroke-linejoin="round"></path></g><text x="725" y="726" font-family="Pretendard, Noto Sans KR, sans-serif" font-size="10" font-weight="700" fill="#636E72" text-anchor="middle">보틀</text><text x="725" y="737" font-family="Pretendard, Noto Sans KR, sans-serif" font-size="8.5" font-weight="400" fill="#9A8F80" text-anchor="middle">720㎖</text><text x="725" y="752" font-family="Pretendard, Noto Sans KR, sans-serif" font-size="12.5" font-weight="700" fill="#2D3436" text-anchor="middle">69,000</text></g></g><line x1="28" y1="804" x2="740" y2="804" stroke="#EDE8E0" stroke-width="1"></line><rect x="28" y="820" width="50" height="104" rx="8" fill="#F5F1EC" stroke="#D8D0C4" stroke-width="1" stroke-dasharray="3 3"></rect><text x="53" y="877" font-family="Pretendard, Noto Sans KR, sans-serif" font-size="10" font-weight="400" fill="#B5AB99" text-anchor="middle">보틀</text><g opacity="1"><text x="94" y="838" font-family="Noto Serif KR, serif" font-size="18.5" font-weight="700" fill="#2D3436" text-anchor="start">스이게이 코우이쿠</text><text x="269.70000000000005" y="838" font-family="Pretendard, Noto Sans KR, sans-serif" font-size="13" font-weight="400" fill="#636E72" text-anchor="start">(고치)</text><text x="94" y="858" font-family="Pretendard, Noto Sans KR, sans-serif" font-size="11.5" font-weight="400" fill="#8E8576" text-anchor="start">스이게이주조</text><text x="94" y="880" font-family="Pretendard, Noto Sans KR, sans-serif" font-size="12.5" font-weight="400" fill="#5C564E" text-anchor="start">쌀의 또렷한 감칠맛과 은은한 긴죠향, 깔끔한 산미가 특징.</text><text x="94" y="902" font-family="Pretendard, Noto Sans KR, sans-serif" font-size="10.5" font-weight="400" fill="#9A8F80" text-anchor="start">정미보합 50% · 일본주도 +7 · 산도 1.8 · 도수 16%</text></g><g opacity="1"><g opacity="1"><g transform="translate(598.2,831.25) scale(0.85)"><path d="M3 5 H13 L11.3 15.5 Q11.1 16.3 10.2 16.3 H5.8 Q4.9 16.3 4.7 15.5 Z" fill="#8A7F6E33" stroke="#8A7F6E" stroke-width="1.4" stroke-linejoin="round"></path><path d="M4.4 8 H11.6" stroke="#8A7F6E" stroke-width="1" opacity="0.45"></path></g><text x="605" y="858" font-family="Pretendard, Noto Sans KR, sans-serif" font-size="10" font-weight="700" fill="#636E72" text-anchor="middle">잔술</text><text x="605" y="869" font-family="Pretendard, Noto Sans KR, sans-serif" font-size="8.5" font-weight="400" fill="#9A8F80" text-anchor="middle">100㎖</text><text x="605" y="884" font-family="Pretendard, Noto Sans KR, sans-serif" font-size="12.5" font-weight="700" fill="#2D3436" text-anchor="middle">16,000</text></g><g opacity="1"><g transform="translate(656.2,825.6) scale(0.8)"><path d="M8 2.5 H14 V5 Q14 6.2 15.2 7 Q18 9 18 14.5 Q18 23 11 23 Q4 23 4 14.5 Q4 9 6.8 7 Q8 6.2 8 5 Z" fill="#8A7F6E33" stroke="#8A7F6E" stroke-width="1.4" stroke-linejoin="round"></path></g><text x="665" y="858" font-family="Pretendard, Noto Sans KR, sans-serif" font-size="10" font-weight="700" fill="#636E72" text-anchor="middle">도쿠리</text><text x="665" y="869" font-family="Pretendard, Noto Sans KR, sans-serif" font-size="8.5" font-weight="400" fill="#9A8F80" text-anchor="middle">300㎖</text><text x="665" y="884" font-family="Pretendard, Noto Sans KR, sans-serif" font-size="12.5" font-weight="700" fill="#2D3436" text-anchor="middle">45,500</text></g><g opacity="0.4"><g transform="translate(717.8,819.2) scale(0.8)"><path d="M7 2 H11 V6.5 Q11 8.5 12.4 10 Q14 11.7 14 14.5 V30 Q14 32 12 32 H6 Q4 32 4 30 V14.5 Q4 11.7 5.6 10 Q7 8.5 7 6.5 Z" fill="#8A7F6E33" stroke="#8A7F6E" stroke-width="1.4" stroke-linejoin="round"></path></g><text x="725" y="858" font-family="Pretendard, Noto Sans KR, sans-serif" font-size="10" font-weight="700" fill="#636E72" text-anchor="middle">보틀</text><text x="725" y="869" font-family="Pretendard, Noto Sans KR, sans-serif" font-size="8.5" font-weight="400" fill="#9A8F80" text-anchor="middle">720㎖</text><text x="725" y="884" font-family="Pretendard, Noto Sans KR, sans-serif" font-size="12.5" font-weight="700" fill="#2D3436" text-anchor="middle">—</text></g></g><text x="729" y="904" font-family="Pretendard, Noto Sans KR, sans-serif" font-size="10" font-weight="700" fill="#8A7F6E" text-anchor="end">도쿠리·잔술만</text><rect x="733" y="895" width="16" height="3" rx="2" fill="#8A7F6E"></rect><line x1="28" y1="936" x2="740" y2="936" stroke="#EDE8E0" stroke-width="1"></line><rect x="28" y="952" width="50" height="104" rx="8" fill="#F5F1EC" stroke="#D8D0C4" stroke-width="1" stroke-dasharray="3 3"></rect><text x="53" y="1009" font-family="Pretendard, Noto Sans KR, sans-serif" font-size="10" font-weight="400" fill="#B5AB99" text-anchor="middle">보틀</text><g opacity="1"><text x="94" y="970" font-family="Noto Serif KR, serif" font-size="18.5" font-weight="700" fill="#2D3436" text-anchor="start">이요카기야 무여과</text><text x="269.70000000000005" y="970" font-family="Pretendard, Noto Sans KR, sans-serif" font-size="13" font-weight="400" fill="#636E72" text-anchor="start">(에히메)</text><text x="94" y="990" font-family="Pretendard, Noto Sans KR, sans-serif" font-size="11.5" font-weight="400" fill="#8E8576" text-anchor="start">카기야</text><text x="94" y="1012" font-family="Pretendard, Noto Sans KR, sans-serif" font-size="12.5" font-weight="400" fill="#5C564E" text-anchor="start">쌀의 감칠맛을 살린 폭넓은 맛. 데워 마셔도 좋은 식중주.</text><text x="94" y="1032" font-family="Pretendard, Noto Sans KR, sans-serif" font-size="10.5" font-weight="700" fill="#9A8F80" text-anchor="start">추천 페어링</text><circle cx="166" cy="1028" r="1.5" fill="#C9BFB0"></circle><text x="174" y="1032" font-family="Pretendard, Noto Sans KR, sans-serif" font-size="12" font-weight="400" fill="#5C564E" text-anchor="start">구운 생선·조림</text><text x="94" y="1056" font-family="Pretendard, Noto Sans KR, sans-serif" font-size="10.5" font-weight="400" fill="#9A8F80" text-anchor="start">정미보합 50% · 일본주도 +4 · 산도 1.7 · 도수 15.5%</text></g><g opacity="1"><g opacity="1"><g transform="translate(598.2,963.25) scale(0.85)"><path d="M3 5 H13 L11.3 15.5 Q11.1 16.3 10.2 16.3 H5.8 Q4.9 16.3 4.7 15.5 Z" fill="#8A7F6E33" stroke="#8A7F6E" stroke-width="1.4" stroke-linejoin="round"></path><path d="M4.4 8 H11.6" stroke="#8A7F6E" stroke-width="1" opacity="0.45"></path></g><text x="605" y="990" font-family="Pretendard, Noto Sans KR, sans-serif" font-size="10" font-weight="700" fill="#636E72" text-anchor="middle">잔술</text><text x="605" y="1001" font-family="Pretendard, Noto Sans KR, sans-serif" font-size="8.5" font-weight="400" fill="#9A8F80" text-anchor="middle">100㎖</text><text x="605" y="1016" font-family="Pretendard, Noto Sans KR, sans-serif" font-size="12.5" font-weight="700" fill="#2D3436" text-anchor="middle">13,500</text></g><g opacity="1"><g transform="translate(656.2,957.6) scale(0.8)"><path d="M8 2.5 H14 V5 Q14 6.2 15.2 7 Q18 9 18 14.5 Q18 23 11 23 Q4 23 4 14.5 Q4 9 6.8 7 Q8 6.2 8 5 Z" fill="#8A7F6E33" stroke="#8A7F6E" stroke-width="1.4" stroke-linejoin="round"></path></g><text x="665" y="990" font-family="Pretendard, Noto Sans KR, sans-serif" font-size="10" font-weight="700" fill="#636E72" text-anchor="middle">도쿠리</text><text x="665" y="1001" font-family="Pretendard, Noto Sans KR, sans-serif" font-size="8.5" font-weight="400" fill="#9A8F80" text-anchor="middle">300㎖</text><text x="665" y="1016" font-family="Pretendard, Noto Sans KR, sans-serif" font-size="12.5" font-weight="700" fill="#2D3436" text-anchor="middle">38,500</text></g><g opacity="1"><g transform="translate(717.8,951.2) scale(0.8)"><path d="M7 2 H11 V6.5 Q11 8.5 12.4 10 Q14 11.7 14 14.5 V30 Q14 32 12 32 H6 Q4 32 4 30 V14.5 Q4 11.7 5.6 10 Q7 8.5 7 6.5 Z" fill="#8A7F6E33" stroke="#8A7F6E" stroke-width="1.4" stroke-linejoin="round"></path></g><text x="725" y="990" font-family="Pretendard, Noto Sans KR, sans-serif" font-size="10" font-weight="700" fill="#636E72" text-anchor="middle">보틀</text><text x="725" y="1001" font-family="Pretendard, Noto Sans KR, sans-serif" font-size="8.5" font-weight="400" fill="#9A8F80" text-anchor="middle">720㎖</text><text x="725" y="1016" font-family="Pretendard, Noto Sans KR, sans-serif" font-size="12.5" font-weight="700" fill="#2D3436" text-anchor="middle">77,000</text></g></g><text x="729" y="1036" font-family="Pretendard, Noto Sans KR, sans-serif" font-size="10" font-weight="700" fill="#C0560F" text-anchor="end">♨ 데움(아츠캉) 가능</text><rect x="733" y="1027" width="16" height="3" rx="2" fill="#C0560F"></rect><text x="28" y="1106" font-family="Noto Serif KR, serif" font-size="17" font-weight="700" fill="#2D3436" text-anchor="start">준마이</text><text x="87.5" y="1106" font-family="Pretendard, Noto Sans KR, sans-serif" font-size="12" font-weight="400" fill="#9A8F80" text-anchor="start">純米</text><text x="740" y="1106" font-family="Pretendard, Noto Sans KR, sans-serif" font-size="11" font-weight="400" fill="#9A8F80" text-anchor="end">쌀·누룩·물로만 빚은 감칠맛</text><line x1="28" y1="1118" x2="740" y2="1118" stroke="#E0D9CC" stroke-width="1.5"></line><rect x="28" y="1134" width="50" height="104" rx="8" fill="#F5F1EC" stroke="#D8D0C4" stroke-width="1" stroke-dasharray="3 3"></rect><text x="53" y="1191" font-family="Pretendard, Noto Sans KR, sans-serif" font-size="10" font-weight="400" fill="#B5AB99" text-anchor="middle">보틀</text><g opacity="1"><text x="94" y="1152" font-family="Noto Serif KR, serif" font-size="18.5" font-weight="700" fill="#2D3436" text-anchor="start">하쿠주로 아카즈라</text><text x="269.70000000000005" y="1152" font-family="Pretendard, Noto Sans KR, sans-serif" font-size="13" font-weight="400" fill="#636E72" text-anchor="start">(효고)</text><text x="94" y="1172" font-family="Pretendard, Noto Sans KR, sans-serif" font-size="11.5" font-weight="400" fill="#8E8576" text-anchor="start">하쿠주로</text><text x="94" y="1194" font-family="Pretendard, Noto Sans KR, sans-serif" font-size="12.5" font-weight="400" fill="#5C564E" text-anchor="start">니혼슈도 +12의 Extra Dry. 담백한 감칠맛, 자극적인 향을 절제.</text><rect x="94" y="1206" width="440" height="30" rx="8" fill="#F5F1EC"></rect><rect x="104" y="1213" width="46" height="15" rx="4" fill="#FBF1DC"></rect><text x="127" y="1224" font-family="Pretendard, Noto Sans KR, sans-serif" font-size="9" font-weight="800" fill="#B07A1E" text-anchor="middle">소믈리에</text><text x="158" y="1225" font-family="Pretendard, Noto Sans KR, sans-serif" font-size="11.5" font-weight="400" fill="#5C564E" text-anchor="start">데우면 진가가 나오는 술. 아츠캉으로 권해요.</text><text x="94" y="1258" font-family="Pretendard, Noto Sans KR, sans-serif" font-size="10.5" font-weight="700" fill="#9A8F80" text-anchor="start">추천 페어링</text><circle cx="166" cy="1254" r="1.5" fill="#C9BFB0"></circle><text x="174" y="1258" font-family="Pretendard, Noto Sans KR, sans-serif" font-size="12" font-weight="400" fill="#5C564E" text-anchor="start">오뎅·전골</text><text x="94" y="1282" font-family="Pretendard, Noto Sans KR, sans-serif" font-size="10.5" font-weight="400" fill="#9A8F80" text-anchor="start">정미보합 70% · 일본주도 +12 · 산도 1.6 · 도수 15%</text></g><g opacity="1"><g opacity="1"><g transform="translate(598.2,1145.25) scale(0.85)"><path d="M3 5 H13 L11.3 15.5 Q11.1 16.3 10.2 16.3 H5.8 Q4.9 16.3 4.7 15.5 Z" fill="#8A7F6E33" stroke="#8A7F6E" stroke-width="1.4" stroke-linejoin="round"></path><path d="M4.4 8 H11.6" stroke="#8A7F6E" stroke-width="1" opacity="0.45"></path></g><text x="605" y="1172" font-family="Pretendard, Noto Sans KR, sans-serif" font-size="10" font-weight="700" fill="#636E72" text-anchor="middle">잔술</text><text x="605" y="1183" font-family="Pretendard, Noto Sans KR, sans-serif" font-size="8.5" font-weight="400" fill="#9A8F80" text-anchor="middle">100㎖</text><text x="605" y="1198" font-family="Pretendard, Noto Sans KR, sans-serif" font-size="12.5" font-weight="700" fill="#2D3436" text-anchor="middle">16,300</text></g><g opacity="1"><g transform="translate(656.2,1139.6) scale(0.8)"><path d="M8 2.5 H14 V5 Q14 6.2 15.2 7 Q18 9 18 14.5 Q18 23 11 23 Q4 23 4 14.5 Q4 9 6.8 7 Q8 6.2 8 5 Z" fill="#8A7F6E33" stroke="#8A7F6E" stroke-width="1.4" stroke-linejoin="round"></path></g><text x="665" y="1172" font-family="Pretendard, Noto Sans KR, sans-serif" font-size="10" font-weight="700" fill="#636E72" text-anchor="middle">도쿠리</text><text x="665" y="1183" font-family="Pretendard, Noto Sans KR, sans-serif" font-size="8.5" font-weight="400" fill="#9A8F80" text-anchor="middle">300㎖</text><text x="665" y="1198" font-family="Pretendard, Noto Sans KR, sans-serif" font-size="12.5" font-weight="700" fill="#2D3436" text-anchor="middle">46,500</text></g><g opacity="1"><g transform="translate(717.8,1133.2) scale(0.8)"><path d="M7 2 H11 V6.5 Q11 8.5 12.4 10 Q14 11.7 14 14.5 V30 Q14 32 12 32 H6 Q4 32 4 30 V14.5 Q4 11.7 5.6 10 Q7 8.5 7 6.5 Z" fill="#8A7F6E33" stroke="#8A7F6E" stroke-width="1.4" stroke-linejoin="round"></path></g><text x="725" y="1172" font-family="Pretendard, Noto Sans KR, sans-serif" font-size="10" font-weight="700" fill="#636E72" text-anchor="middle">보틀</text><text x="725" y="1183" font-family="Pretendard, Noto Sans KR, sans-serif" font-size="8.5" font-weight="400" fill="#9A8F80" text-anchor="middle">720㎖</text><text x="725" y="1198" font-family="Pretendard, Noto Sans KR, sans-serif" font-size="12.5" font-weight="700" fill="#2D3436" text-anchor="middle">93,000</text></g></g><text x="729" y="1218" font-family="Pretendard, Noto Sans KR, sans-serif" font-size="10" font-weight="700" fill="#C0560F" text-anchor="end">♨ 데움(아츠캉) 가능</text><rect x="733" y="1209" width="16" height="3" rx="2" fill="#C0560F"></rect><line x1="28" y1="1290" x2="740" y2="1290" stroke="#EDE8E0" stroke-width="1"></line><rect x="28" y="1306" width="50" height="104" rx="8" fill="#F5F1EC" stroke="#D8D0C4" stroke-width="1" stroke-dasharray="3 3"></rect><text x="53" y="1363" font-family="Pretendard, Noto Sans KR, sans-serif" font-size="10" font-weight="400" fill="#B5AB99" text-anchor="middle">보틀</text><g opacity="1"><text x="94" y="1324" font-family="Noto Serif KR, serif" font-size="18.5" font-weight="700" fill="#2D3436" text-anchor="start">쿠즈류 준마이</text><text x="231.1" y="1324" font-family="Pretendard, Noto Sans KR, sans-serif" font-size="13" font-weight="400" fill="#636E72" text-anchor="start">(후쿠이)</text><text x="94" y="1344" font-family="Pretendard, Noto Sans KR, sans-serif" font-size="11.5" font-weight="400" fill="#8E8576" text-anchor="start">코쿠류</text><text x="94" y="1366" font-family="Pretendard, Noto Sans KR, sans-serif" font-size="12.5" font-weight="400" fill="#5C564E" text-anchor="start">잘 익은 바나나 아로마에 곡물감. 차게 즐기기 좋은 한 병.</text><rect x="94" y="1378" width="440" height="30" rx="8" fill="#F5F1EC"></rect><rect x="104" y="1385" width="46" height="15" rx="4" fill="#FBF1DC"></rect><text x="127" y="1396" font-family="Pretendard, Noto Sans KR, sans-serif" font-size="9" font-weight="800" fill="#B07A1E" text-anchor="middle">소믈리에</text><text x="158" y="1397" font-family="Pretendard, Noto Sans KR, sans-serif" font-size="11.5" font-weight="400" fill="#5C564E" text-anchor="start">데워도, 차게도. 안주 없이도 좋은 만능주.</text><text x="94" y="1432" font-family="Pretendard, Noto Sans KR, sans-serif" font-size="10.5" font-weight="400" fill="#9A8F80" text-anchor="start">정미보합 65% · 일본주도 +5.5 · 산도 비공개 · 도수 14.5%</text></g><g opacity="1"><g opacity="1"><g transform="translate(598.2,1317.25) scale(0.85)"><path d="M3 5 H13 L11.3 15.5 Q11.1 16.3 10.2 16.3 H5.8 Q4.9 16.3 4.7 15.5 Z" fill="#8A7F6E33" stroke="#8A7F6E" stroke-width="1.4" stroke-linejoin="round"></path><path d="M4.4 8 H11.6" stroke="#8A7F6E" stroke-width="1" opacity="0.45"></path></g><text x="605" y="1344" font-family="Pretendard, Noto Sans KR, sans-serif" font-size="10" font-weight="700" fill="#636E72" text-anchor="middle">잔술</text><text x="605" y="1355" font-family="Pretendard, Noto Sans KR, sans-serif" font-size="8.5" font-weight="400" fill="#9A8F80" text-anchor="middle">100㎖</text><text x="605" y="1370" font-family="Pretendard, Noto Sans KR, sans-serif" font-size="12.5" font-weight="700" fill="#2D3436" text-anchor="middle">13,500</text></g><g opacity="1"><g transform="translate(656.2,1311.6) scale(0.8)"><path d="M8 2.5 H14 V5 Q14 6.2 15.2 7 Q18 9 18 14.5 Q18 23 11 23 Q4 23 4 14.5 Q4 9 6.8 7 Q8 6.2 8 5 Z" fill="#8A7F6E33" stroke="#8A7F6E" stroke-width="1.4" stroke-linejoin="round"></path></g><text x="665" y="1344" font-family="Pretendard, Noto Sans KR, sans-serif" font-size="10" font-weight="700" fill="#636E72" text-anchor="middle">도쿠리</text><text x="665" y="1355" font-family="Pretendard, Noto Sans KR, sans-serif" font-size="8.5" font-weight="400" fill="#9A8F80" text-anchor="middle">300㎖</text><text x="665" y="1370" font-family="Pretendard, Noto Sans KR, sans-serif" font-size="12.5" font-weight="700" fill="#2D3436" text-anchor="middle">38,500</text></g><g opacity="1"><g transform="translate(717.8,1305.2) scale(0.8)"><path d="M7 2 H11 V6.5 Q11 8.5 12.4 10 Q14 11.7 14 14.5 V30 Q14 32 12 32 H6 Q4 32 4 30 V14.5 Q4 11.7 5.6 10 Q7 8.5 7 6.5 Z" fill="#8A7F6E33" stroke="#8A7F6E" stroke-width="1.4" stroke-linejoin="round"></path></g><text x="725" y="1344" font-family="Pretendard, Noto Sans KR, sans-serif" font-size="10" font-weight="700" fill="#636E72" text-anchor="middle">보틀</text><text x="725" y="1355" font-family="Pretendard, Noto Sans KR, sans-serif" font-size="8.5" font-weight="400" fill="#9A8F80" text-anchor="middle">720㎖</text><text x="725" y="1370" font-family="Pretendard, Noto Sans KR, sans-serif" font-size="12.5" font-weight="700" fill="#2D3436" text-anchor="middle">111,000</text></g></g><text x="729" y="1390" font-family="Pretendard, Noto Sans KR, sans-serif" font-size="10" font-weight="700" fill="#1F8A8C" text-anchor="end">여름 한정</text><rect x="733" y="1381" width="16" height="3" rx="2" fill="#1F8A8C"></rect><text x="729" y="1405" font-family="Pretendard, Noto Sans KR, sans-serif" font-size="10" font-weight="700" fill="#C0560F" text-anchor="end">♨ 데움(아츠캉) 가능</text><rect x="733" y="1396" width="16" height="3" rx="2" fill="#C0560F"></rect><text x="28" y="1478" font-family="Noto Serif KR, serif" font-size="17" font-weight="700" fill="#2D3436" text-anchor="start">혼죠조</text><text x="87.5" y="1478" font-family="Pretendard, Noto Sans KR, sans-serif" font-size="12" font-weight="400" fill="#9A8F80" text-anchor="start">本醸造</text><text x="740" y="1478" font-family="Pretendard, Noto Sans KR, sans-serif" font-size="11" font-weight="400" fill="#9A8F80" text-anchor="end">깔끔하고 드라이한 반주(飯酒)용</text><line x1="28" y1="1490" x2="740" y2="1490" stroke="#E0D9CC" stroke-width="1.5"></line><rect x="28" y="1506" width="50" height="104" rx="8" fill="#F5F1EC" stroke="#D8D0C4" stroke-width="1" stroke-dasharray="3 3"></rect><text x="53" y="1563" font-family="Pretendard, Noto Sans KR, sans-serif" font-size="10" font-weight="400" fill="#B5AB99" text-anchor="middle">보틀</text><g opacity="1"><text x="94" y="1524" font-family="Noto Serif KR, serif" font-size="18.5" font-weight="700" fill="#2D3436" text-anchor="start">키쿠마사무네 혼죠조</text><text x="289" y="1524" font-family="Pretendard, Noto Sans KR, sans-serif" font-size="13" font-weight="400" fill="#636E72" text-anchor="start">(효고)</text><text x="94" y="1544" font-family="Pretendard, Noto Sans KR, sans-serif" font-size="11.5" font-weight="400" fill="#8E8576" text-anchor="start">키쿠마사무네</text><text x="94" y="1566" font-family="Pretendard, Noto Sans KR, sans-serif" font-size="12.5" font-weight="400" fill="#5C564E" text-anchor="start">쌀의 감칠맛을 살린 드라이한 정통파. 식사와 함께 부담 없이.</text><text x="94" y="1586" font-family="Pretendard, Noto Sans KR, sans-serif" font-size="10.5" font-weight="700" fill="#9A8F80" text-anchor="start">추천 페어링</text><circle cx="166" cy="1582" r="1.5" fill="#C9BFB0"></circle><text x="174" y="1586" font-family="Pretendard, Noto Sans KR, sans-serif" font-size="12" font-weight="400" fill="#5C564E" text-anchor="start">전골·구이</text><text x="94" y="1610" font-family="Pretendard, Noto Sans KR, sans-serif" font-size="10.5" font-weight="400" fill="#9A8F80" text-anchor="start">정미보합 70% · 일본주도 +5 · 산도 1.4 · 도수 15%</text></g><g opacity="1"><g opacity="1"><g transform="translate(598.2,1517.25) scale(0.85)"><path d="M3 5 H13 L11.3 15.5 Q11.1 16.3 10.2 16.3 H5.8 Q4.9 16.3 4.7 15.5 Z" fill="#8A7F6E33" stroke="#8A7F6E" stroke-width="1.4" stroke-linejoin="round"></path><path d="M4.4 8 H11.6" stroke="#8A7F6E" stroke-width="1" opacity="0.45"></path></g><text x="605" y="1544" font-family="Pretendard, Noto Sans KR, sans-serif" font-size="10" font-weight="700" fill="#636E72" text-anchor="middle">잔술</text><text x="605" y="1555" font-family="Pretendard, Noto Sans KR, sans-serif" font-size="8.5" font-weight="400" fill="#9A8F80" text-anchor="middle">100㎖</text><text x="605" y="1570" font-family="Pretendard, Noto Sans KR, sans-serif" font-size="12.5" font-weight="700" fill="#2D3436" text-anchor="middle">9,500</text></g><g opacity="1"><g transform="translate(656.2,1511.6) scale(0.8)"><path d="M8 2.5 H14 V5 Q14 6.2 15.2 7 Q18 9 18 14.5 Q18 23 11 23 Q4 23 4 14.5 Q4 9 6.8 7 Q8 6.2 8 5 Z" fill="#8A7F6E33" stroke="#8A7F6E" stroke-width="1.4" stroke-linejoin="round"></path></g><text x="665" y="1544" font-family="Pretendard, Noto Sans KR, sans-serif" font-size="10" font-weight="700" fill="#636E72" text-anchor="middle">도쿠리</text><text x="665" y="1555" font-family="Pretendard, Noto Sans KR, sans-serif" font-size="8.5" font-weight="400" fill="#9A8F80" text-anchor="middle">300㎖</text><text x="665" y="1570" font-family="Pretendard, Noto Sans KR, sans-serif" font-size="12.5" font-weight="700" fill="#2D3436" text-anchor="middle">27,000</text></g><g opacity="1"><g transform="translate(717.8,1505.2) scale(0.8)"><path d="M7 2 H11 V6.5 Q11 8.5 12.4 10 Q14 11.7 14 14.5 V30 Q14 32 12 32 H6 Q4 32 4 30 V14.5 Q4 11.7 5.6 10 Q7 8.5 7 6.5 Z" fill="#8A7F6E33" stroke="#8A7F6E" stroke-width="1.4" stroke-linejoin="round"></path></g><text x="725" y="1544" font-family="Pretendard, Noto Sans KR, sans-serif" font-size="10" font-weight="700" fill="#636E72" text-anchor="middle">보틀</text><text x="725" y="1555" font-family="Pretendard, Noto Sans KR, sans-serif" font-size="8.5" font-weight="400" fill="#9A8F80" text-anchor="middle">720㎖</text><text x="725" y="1570" font-family="Pretendard, Noto Sans KR, sans-serif" font-size="12.5" font-weight="700" fill="#2D3436" text-anchor="middle">58,000</text></g></g><text x="729" y="1590" font-family="Pretendard, Noto Sans KR, sans-serif" font-size="10" font-weight="700" fill="#C0560F" text-anchor="end">♨ 데움(아츠캉) 가능</text><rect x="733" y="1581" width="16" height="3" rx="2" fill="#C0560F"></rect></svg>